<svg width="260" height="107" viewBox="0 0 260 107" fill="none" xmlns="http://www.w3.org/2000/svg">
<path d="M3.64988 65.1C3.64988 65.1 16.3499 48.7 5.64988 32.6C-6.05012 14.6 4.04989 0.100006 4.04989 0.100006H59.0499C59.0499 0.100006 49.0499 14.6 60.6499 32.6C71.3499 48.7 58.6499 65.1 58.6499 65.1H3.64988Z" fill="#15B8FF"/>
<path fill-rule="evenodd" clip-rule="evenodd" d="M64.9497 32.6C64.9497 14.7 79.5497 0.100006 97.4497 0.100006C115.35 0.100006 129.95 14.7 129.95 32.6C129.95 50.5 115.35 65.1 97.4497 65.1C79.5497 65.1 64.9497 50.5 64.9497 32.6Z" fill="#FFD600"/>
<path d="M129.95 0.100006H151.65V22.6H173.35V43.8H195.05V65H130.05V0L129.95 0.100006Z" fill="#F78CA0"/>
<path d="M195.05 0.100006H259.85C261.75 14.6 240.95 18 240.95 32.6C240.95 47.2 261.75 50.6 259.85 65.1H195.05C193.15 50.6 213.95 47.2 213.95 32.6C213.95 18 193.15 14.6 195.05 0.100006Z" fill="#36E0C5"/>
<path d="M180.877 94.9222C181.777 95.7222 183.677 97.3222 185.077 98.3222C187.177 99.8222 188.777 101.022 189.177 101.422C189.077 101.822 188.877 101.922 188.377 102.622C186.777 104.622 185.877 105.222 185.377 105.722C184.177 104.822 181.577 102.822 180.477 101.822C177.777 99.5222 175.177 97.2222 172.777 95.6222C172.777 97.1222 173.077 104.422 173.077 105.922C171.577 106.422 167.177 105.822 167.177 105.822C167.177 105.822 166.977 89.2222 167.077 83.2222C167.077 81.8222 167.177 80.0222 167.177 80.0222C167.177 80.0222 168.977 79.8222 170.477 79.7222C173.477 79.5222 176.477 79.3222 179.577 79.1222C182.177 78.9222 184.877 78.8222 187.177 80.0222C190.477 81.7222 192.177 86.0222 190.877 89.5222C189.577 93.0222 187.777 95.1222 180.977 94.9222H180.877ZM172.577 89.6222C172.577 89.6222 174.077 89.9222 174.477 89.9222C176.977 90.1222 179.477 90.4222 181.977 89.9222C183.077 89.7222 184.177 89.4222 184.977 88.6222C185.777 87.8222 185.877 86.5222 185.277 85.5222C184.677 84.5222 183.577 84.3222 182.377 84.2222C178.377 83.8222 172.677 84.8222 172.677 84.8222V89.5222L172.577 89.6222Z" fill="#999999"/>
<path d="M224.776 96.7222C224.776 99.1222 224.776 103.722 224.776 106.122C224.776 106.622 218.976 106.622 218.976 106.122C218.776 101.622 218.476 82.4222 218.776 80.5222C219.676 80.3222 222.376 79.9222 223.476 79.8222C225.376 79.6222 227.276 79.4222 229.176 79.3222C233.276 79.1222 237.876 79.3222 240.776 82.1222C242.876 84.2222 243.676 87.5222 242.576 90.3222C241.376 93.5222 238.176 95.6222 234.876 96.3222C231.576 97.0222 228.076 96.7222 224.776 96.3222V96.6222V96.7222ZM224.576 85.2222C224.576 85.2222 224.576 87.2222 224.576 87.8222C224.576 88.1222 224.576 90.9222 224.676 90.9222C225.876 90.9222 234.376 92.4222 236.976 89.9222C237.976 88.9222 238.276 87.2222 237.376 86.2222C235.476 84.2222 230.976 84.5222 229.276 84.6222C228.076 84.6222 224.676 85.1222 224.576 85.2222Z" fill="#999999"/>
<path d="M94.7764 99.9222C95.2764 99.9222 96.2764 99.9222 96.2764 99.9222C96.2764 99.9222 96.3763 101.022 96.3763 101.422C96.3763 102.922 96.3763 106.022 96.3763 106.022C96.3763 106.022 87.2764 106.022 82.6764 105.922C81.5764 105.922 78.7764 105.422 78.7764 105.422C78.7764 105.422 78.9763 99.0222 78.9763 98.2222C78.9763 93.2222 79.2764 92.5222 79.2764 87.5222C79.2764 85.1222 79.7764 80.3222 79.7764 80.3222L85.9763 80.6222C85.9763 80.6222 85.9763 81.7222 85.9763 82.7222C85.9763 83.8222 84.9764 93.3222 85.2764 97.7222C85.2764 98.4222 85.4763 100.122 85.4763 100.122C85.4763 100.122 92.7763 100.122 94.8763 100.022L94.7764 99.9222Z" fill="#999999"/>
<path d="M23.7766 86.5222C22.4766 87.0222 21.5766 87.7222 21.8766 89.1222C22.1766 90.8222 25.1766 90.9222 26.7766 90.6222C28.8766 90.3222 30.9766 90.0222 33.0766 90.2222C35.1766 90.4222 37.0766 90.9222 38.8766 91.9222C41.3766 93.3222 42.7766 96.8222 42.0766 99.7222C41.5766 102.022 39.6766 103.722 37.5766 104.722C35.4766 105.722 33.1766 106.022 30.8766 106.222C26.3766 106.622 16.0766 106.222 16.0766 106.222L16.8766 101.122C16.8766 101.122 27.7766 101.422 33.0766 100.722C33.8766 100.622 34.7766 100.422 35.4766 100.022C36.1766 99.5222 36.4766 98.5222 36.3766 97.7222C36.1766 96.3222 34.5766 95.5222 33.0766 95.5222C29.8766 95.4222 26.8766 96.4222 23.6766 96.1222C20.5766 95.7222 17.1766 94.0222 16.2766 91.0222C15.5766 88.7222 16.2766 86.2222 17.5766 84.3222C18.4766 82.9222 19.5766 81.5222 23.3766 80.8222C28.3766 79.9222 33.3766 79.9222 38.3766 80.5222C38.8766 80.5222 41.0766 80.9222 41.0766 80.9222L40.6766 85.8222C40.6766 85.8222 35.6766 85.5222 33.1766 85.6222C31.3766 85.6222 29.4766 85.6222 27.5766 85.6222C26.5766 85.6222 25.0766 85.8222 23.7766 86.3222V86.5222Z" fill="#999999"/>
<path d="M158.977 86.5222C158.977 86.5222 155.177 86.9222 153.877 86.9222C152.377 86.9222 150.477 86.9222 149.477 87.0222C149.277 87.9222 149.677 94.2222 149.877 96.5222C149.877 97.7222 150.077 104.322 149.877 105.722C149.377 106.022 144.077 105.722 144.077 105.722C144.077 105.722 143.677 91.5222 143.477 86.9222C139.777 86.6222 136.277 86.9222 132.277 86.8222C132.077 86.8222 132.477 81.2222 132.477 81.2222C132.477 81.2222 149.777 80.6222 154.677 80.5222C156.077 80.5222 158.977 80.5222 158.977 80.5222V86.4222V86.5222Z" fill="#999999"/>
<path d="M200.376 85.0222C200.376 84.4222 200.376 83.7222 200.376 83.1222C200.376 82.1222 200.376 81.3222 200.376 80.9222C200.876 80.9222 202.476 80.8222 203.876 80.8222C205.276 80.8222 206.076 80.8222 206.576 81.0222C206.676 81.4222 206.576 82.5222 206.576 83.0222C206.576 89.1222 206.776 95.2222 206.776 101.322C206.776 102.222 206.776 105.422 206.776 105.422C206.776 105.422 204.976 105.522 203.976 105.622C202.976 105.622 200.476 105.422 200.476 105.422C200.476 105.422 200.476 102.622 200.476 101.822C200.476 97.7222 200.476 93.6222 200.376 89.5222C200.376 88.0222 200.376 86.5222 200.376 85.1222V85.0222Z" fill="#999999"/>
<path d="M55.1764 83.7222C58.6764 82.3222 62.8764 82.4222 66.0764 84.6222C69.5764 86.9222 71.5764 91.5222 70.8764 95.7222C70.1764 99.9222 66.6764 103.522 62.5764 104.422C59.3764 105.122 55.8764 104.222 53.1764 102.222C50.2764 100.022 48.3764 96.5222 48.4764 93.0222C48.4764 88.6222 51.4764 85.3222 55.1764 83.8222V83.7222ZM63.7764 97.1222C64.5764 96.2222 64.6764 94.9222 64.7764 93.8222C64.7764 92.8222 64.7764 91.8222 64.4764 90.9222C63.8764 89.6222 62.5764 88.8222 61.2764 88.5222C58.0764 87.7222 54.6764 88.9222 54.3764 92.6222C54.2764 94.3222 55.0764 96.0222 56.3764 97.1222C57.6764 98.2222 59.4764 98.6222 61.1764 98.4222C62.1764 98.3222 63.0764 97.9222 63.7764 97.1222Z" fill="#999999"/>
<path d="M113.577 83.1222C114.377 83.1222 115.077 83.1222 115.777 83.1222C118.977 83.4222 122.177 85.0222 123.977 87.7222C125.577 90.0222 125.877 93.1222 125.277 95.8222C124.177 100.422 119.877 104.022 115.177 104.522C110.477 104.922 105.677 102.122 103.677 97.8222C102.077 94.4222 102.477 90.1222 104.477 86.9222C106.177 84.2222 110.177 83.1222 113.577 83.0222V83.1222ZM117.677 89.4222C117.277 89.1222 116.877 88.8222 116.477 88.6222C113.077 87.0222 108.777 88.5222 108.577 92.6222C108.577 94.4222 109.277 96.1222 110.377 97.4222C110.877 98.0222 111.477 98.5222 112.177 98.8222C113.277 99.2222 114.477 98.9222 115.477 98.6222C116.277 98.3222 117.077 98.0222 117.777 97.5222C119.177 96.4222 119.877 94.5222 119.577 92.7222C119.377 91.4222 118.577 90.2222 117.577 89.4222H117.677Z" fill="#999999"/>
</svg>
