<svg width="24" height="24" viewBox="0 0 24 24" fill="none" xmlns="http://www.w3.org/2000/svg">
<path d="M12 2C10.2133 2 8.76333 3.42087 8.69167 5.17548C7.19756 5.808 5.92434 6.86252 5.03076 8.20756C4.13717 9.55259 3.66276 11.1286 3.66667 12.7391C3.66667 12.8796 3.66 13.0365 3.66667 13.2042C2.67917 13.7792 2 14.8333 2 16.0435C2 17.8584 3.5025 19.3478 5.33333 19.3478C5.8125 19.3478 6.275 19.247 6.6875 19.0637C8.13167 20.2664 10.015 21 12 21C13.985 21 15.8683 20.2664 17.3125 19.0637C17.7389 19.2513 18.2002 19.3481 18.6667 19.3478C20.4975 19.3478 22 17.8584 22 16.0435C22 14.8209 21.3125 13.7494 20.3083 13.177C20.3208 13.0448 20.3333 12.9126 20.3333 12.7391C20.3372 11.1286 19.8628 9.55259 18.9692 8.20756C18.0757 6.86252 16.8024 5.808 15.3083 5.17548C15.2358 3.42087 13.7858 2 12 2ZM12 3.65217C12.93 3.65217 13.6667 4.38243 13.6667 5.30435C13.6667 6.22626 12.93 6.95652 12 6.95652C11.07 6.95652 10.3333 6.22626 10.3333 5.30435C10.3333 4.38243 11.07 3.65217 12 3.65217ZM9.05833 6.82765C9.61667 7.88009 10.725 8.6087 12 8.6087C13.275 8.6087 14.3833 7.88009 14.9417 6.82765C16.0602 7.36641 17.003 8.20675 17.6618 9.25232C18.3207 10.2979 18.6689 11.5063 18.6667 12.7391C16.8358 12.7391 15.3333 14.2286 15.3333 16.0435C15.3333 16.7828 15.5917 17.4528 16.0108 18.0054C14.8542 18.8687 13.4478 19.3394 12 19.3478C10.5522 19.3394 9.14576 18.8687 7.98917 18.0054C8.42529 17.4425 8.66327 16.7533 8.66667 16.0435C8.66667 14.2286 7.16417 12.7391 5.33333 12.7391C5.33333 10.1617 6.825 7.90157 9.05833 6.82765ZM5.33333 14.3913C6.26333 14.3913 7 15.1216 7 16.0435C7 16.9654 6.26333 17.6957 5.33333 17.6957C4.40333 17.6957 3.66667 16.9654 3.66667 16.0435C3.66667 15.1216 4.40333 14.3913 5.33333 14.3913ZM18.6667 14.3913C19.5967 14.3913 20.3333 15.1216 20.3333 16.0435C20.3333 16.9654 19.5967 17.6957 18.6667 17.6957C17.7367 17.6957 17 16.9654 17 16.0435C17 15.1216 17.7367 14.3913 18.6667 14.3913Z" fill="#14B8FF"/>
</svg>
