<svg width="16" height="16" viewBox="0 0 16 16" fill="none" xmlns="http://www.w3.org/2000/svg">
<path d="M5.99602 1.42C5.97159 1.28881 5.8971 1.17227 5.7883 1.09501C5.6795 1.01775 5.54492 0.98583 5.41302 1.006C5.29514 1.02405 5.18799 1.08472 5.11187 1.17651C5.03575 1.26829 4.99595 1.38482 5.00002 1.504C3.78802 1.803 3.01802 2.404 2.56302 3.144C2.10702 3.884 2.00002 4.707 2.00002 5.372V5.688L1.28602 6.677C1.1689 6.83913 1.08539 7.02305 1.04039 7.21793C0.995404 7.41282 0.989843 7.61473 1.02404 7.8118C1.05823 8.00886 1.13149 8.1971 1.23951 8.36543C1.34753 8.53377 1.48812 8.6788 1.65302 8.792L7.58302 12.863C8.66619 13.6065 9.94923 14.0043 11.263 14.004H12.762C13.3554 14.0035 13.9243 13.7675 14.3439 13.3479C14.7635 12.9283 14.9995 12.3594 15 11.766C15 10.492 13.93 9.614 12.982 9.196C12.661 9.054 12.39 8.86 12.212 8.598L10.114 4.988C10.2388 4.96215 10.3485 4.8884 10.4196 4.78258C10.4906 4.67676 10.5173 4.5473 10.494 4.422C10.4698 4.29069 10.3954 4.17399 10.2865 4.09669C10.1777 4.01939 10.043 3.98757 9.91102 4.008C8.04102 4.304 6.30102 3.104 5.99602 1.42ZM8.98402 5.033L11.356 9.115L11.372 9.14C11.687 9.615 12.141 9.917 12.578 10.11C13.075 10.33 13.487 10.641 13.738 11H11.24C10.5314 10.9996 9.83954 10.7841 9.25602 10.382L7.66202 9.285L8.45802 8.879C8.57873 8.81728 8.68563 8.73166 8.77222 8.62734C8.85882 8.52302 8.92329 8.40219 8.96174 8.27218C9.00018 8.14217 9.01178 8.0057 8.99584 7.87106C8.9799 7.73643 8.93676 7.60644 8.86902 7.489L8.30002 6.5C8.17177 6.27834 7.96338 6.11432 7.71779 6.04176C7.4722 5.9692 7.20813 5.99363 6.98002 6.11L4.72002 7.26L3.76202 6.6L4.91702 6.072C5.04362 6.01405 5.15673 5.9303 5.2491 5.82611C5.34147 5.72192 5.41107 5.59959 5.45343 5.46695C5.49579 5.33432 5.50998 5.19429 5.4951 5.05585C5.48022 4.91741 5.4366 4.7836 5.36702 4.663L4.31002 2.83C4.61522 2.66495 4.94158 2.54248 5.28002 2.466C5.91302 3.911 7.36302 4.897 8.98402 5.033ZM6.72402 8.64L5.65702 7.905L7.43302 7L8.00302 7.988L6.72402 8.64ZM3.41402 3.668C3.45068 3.608 3.49135 3.549 3.53602 3.491L4.50002 5.163L3.00002 5.85V5.372C3.00002 4.8 3.09402 4.188 3.41402 3.668ZM2.09702 7.262L2.38302 6.866L8.68902 11.206C9.43948 11.7225 10.329 11.999 11.24 11.999H13.978C13.9235 12.2816 13.7723 12.5364 13.5504 12.7198C13.3286 12.9032 13.0498 13.0036 12.762 13.004H11.262C10.1507 13.0042 9.06536 12.6678 8.14902 12.039L2.22002 7.967C2.16508 7.92924 2.11824 7.88088 2.08227 7.82475C2.0463 7.76863 2.02191 7.70588 2.01054 7.64019C1.99917 7.5745 2.00106 7.50721 2.01608 7.44226C2.0311 7.37731 2.05896 7.31602 2.09802 7.262" fill="#888888"/>
</svg>
