<svg width="120" height="32" viewBox="0 0 120 32" fill="none" xmlns="http://www.w3.org/2000/svg">
<path d="M18.5616 22.3769C19.3066 22.2623 20.0638 22.0781 20.6614 21.6156C21.259 21.153 21.6519 20.3631 21.4473 19.6427C21.1485 18.5744 19.8346 18.206 18.7295 18.0955C16.6543 17.8949 14.5586 17.9727 12.4916 17.7189C10.4245 17.4652 8.32068 16.8307 6.78576 15.4227C4.94386 13.7363 4.15389 10.9939 4.80879 8.58719C5.23038 7.04 6.26184 5.70564 7.55527 4.76423C9.11065 3.63043 11.5542 3.4135 12.467 3.3562C16.818 3.09424 21.1935 3.16382 25.5363 3.55267C26.3181 3.62225 27.8776 3.79416 27.8776 3.79416L27.6197 8.19425C27.6197 8.19425 17.5752 8.43575 13.1546 8.38254C12.5079 8.37435 11.8489 8.37026 11.2268 8.55035C10.6046 8.73045 10.0152 9.13158 9.76145 9.72917C9.32349 10.7647 10.093 11.9886 11.1081 12.4675C12.1232 12.9464 13.302 12.8891 14.4235 12.8522C17.1618 12.7581 19.9942 12.8563 22.4869 13.9942C24.9796 15.1321 27.063 17.5388 27.0753 20.2771C27.0835 22.2705 25.9947 24.1697 24.4475 25.4263C22.9003 26.6828 20.9438 27.35 18.971 27.6365C16.9981 27.9231 14.9965 27.8617 13.0032 27.7962C10.5351 27.7143 3.2002 27.3991 3.2002 27.3991L3.72821 22.4383C3.72821 22.4383 14.972 22.9213 18.5616 22.3728V22.3769Z" fill="#121212"/>
<path d="M35.458 18.689C35.3393 18.1937 35.2616 17.6903 35.2165 17.1868C34.9341 13.9123 36.2152 10.556 38.5483 8.25154C41.0615 5.77112 46.1329 5.49688 49.4114 6.25001C52.6286 6.99087 55.6166 9.24208 56.6153 12.3897C57.3521 14.7187 56.9551 17.2891 56.0177 19.5403C54.9331 22.1395 53.0298 24.5176 50.4102 25.549C48.1671 26.4291 45.6417 26.2449 43.3004 25.68C41.2702 25.1929 39.2442 24.3907 37.7584 22.9213C36.6 21.7752 35.8387 20.2771 35.458 18.6849V18.689ZM51.0692 18.2715C51.2943 17.8785 51.4785 17.457 51.6135 17.0272C51.986 15.8443 52.0433 14.5099 51.4785 13.4048C50.7253 11.9272 49.0021 11.1454 47.3444 11.0635C45.8627 10.9898 43.8898 11.2886 42.5391 11.9149C41.4299 12.4265 40.7545 14.1129 40.558 15.2671C40.3411 16.5524 40.6481 17.9563 41.5404 18.9059C42.404 19.8269 43.6852 20.2198 44.9254 20.4531C46.3621 20.7233 47.9175 20.8133 49.215 20.1379C50.0049 19.7245 50.6271 19.0574 51.0733 18.2797L51.0692 18.2715Z" fill="#121212"/>
<path d="M98.451 28.4633C98.0703 22.209 98.2504 15.6642 97.8698 9.40989C94.9227 9.29119 91.7342 9.30756 88.7872 9.18886C88.2059 9.1643 87.0026 9.15202 87.0026 9.15202L87.1949 4.51043C87.1949 4.51043 89.9291 4.35899 90.7109 4.31806C93.1627 4.19117 95.6186 4.10112 98.0703 4.052C102.921 3.94968 112.625 4.19526 112.625 4.19526C112.625 4.19526 112.92 7.92818 112.744 9.25435C110.096 9.21342 103.506 9.30756 103.506 9.30756C103.506 9.30756 103.633 22.2254 103.829 28.3201C102.143 28.316 100.137 28.4633 98.451 28.4592V28.4633Z" fill="#121212"/>
<path d="M65.0144 14.1375C65.0144 13.2001 65.0062 12.2628 65.0021 11.3255C64.9939 9.11112 64.9776 4.65781 64.9776 4.65781C64.9776 4.65781 70.5769 3.72049 70.5933 4.00291C70.9412 9.55727 71.0067 15.0952 71.105 20.6578C73.9292 20.6005 76.7534 20.5391 79.5818 20.4818C80.1384 20.4695 81.833 20.4613 81.833 20.4613C81.833 20.4613 82.1277 22.3687 82.1564 23.3183C82.185 24.186 82.3078 26.2776 82.3078 26.2776C82.3078 26.2776 80.1671 26.2776 79.4344 26.2776C75.108 26.2858 65.3992 26.3963 65.3992 26.3963C65.3992 26.3963 65.0267 17.6453 65.0103 14.1375H65.0144Z" fill="#121212"/>
</svg>
