<svg width="16" height="16" viewBox="0 0 16 16" fill="none" xmlns="http://www.w3.org/2000/svg">
<path d="M5.66732 11.3333C5.84413 11.3333 6.0137 11.2631 6.13872 11.1381C6.26375 11.0131 6.33398 10.8435 6.33398 10.6667C6.33716 10.6223 6.33716 10.5777 6.33398 10.5333C6.3271 10.4915 6.3136 10.451 6.29398 10.4133C6.27912 10.371 6.25896 10.3307 6.23398 10.2933L6.15398 10.1933C6.09058 10.1326 6.01582 10.0851 5.93398 10.0533C5.80936 9.99467 5.66963 9.97604 5.53398 10L5.41398 10.04L5.29398 10.1C5.25939 10.1251 5.22602 10.1518 5.19398 10.18L5.11398 10.28C5.08901 10.3173 5.06885 10.3576 5.05398 10.4C5.03437 10.4376 5.02087 10.4781 5.01398 10.52C5.01081 10.5644 5.01081 10.609 5.01398 10.6533C5.01398 10.8302 5.08422 10.9997 5.20925 11.1247C5.33427 11.2498 5.50384 11.32 5.68065 11.32L5.66732 11.3333ZM11.0007 11.3333C11.1775 11.3333 11.347 11.2631 11.4721 11.1381C11.5971 11.0131 11.6673 10.8435 11.6673 10.6667C11.6705 10.6223 11.6705 10.5777 11.6673 10.5333C11.6604 10.4915 11.6469 10.451 11.6273 10.4133C11.6124 10.371 11.5923 10.3307 11.5673 10.2933L11.4873 10.1933C11.4221 10.135 11.3478 10.0877 11.2673 10.0533C11.105 9.98666 10.923 9.98666 10.7607 10.0533C10.6802 10.0877 10.6058 10.135 10.5407 10.1933L10.4607 10.2933C10.4357 10.3307 10.4155 10.371 10.4007 10.4133C10.381 10.451 10.3675 10.4915 10.3607 10.5333C10.3575 10.5777 10.3575 10.6223 10.3607 10.6667C10.3614 10.8416 10.4308 11.0092 10.554 11.1333C10.6721 11.2542 10.8318 11.3257 11.0007 11.3333ZM9.00065 3.33334H7.66732C7.49051 3.33334 7.32094 3.40358 7.19591 3.52861C7.07089 3.65363 7.00065 3.8232 7.00065 4.00001C7.00065 4.17682 7.07089 4.34639 7.19591 4.47141C7.32094 4.59644 7.49051 4.66668 7.66732 4.66668H9.00065C9.17746 4.66668 9.34703 4.59644 9.47206 4.47141C9.59708 4.34639 9.66732 4.17682 9.66732 4.00001C9.66732 3.8232 9.59708 3.65363 9.47206 3.52861C9.34703 3.40358 9.17746 3.33334 9.00065 3.33334ZM12.334 1.33334H4.33398C3.80355 1.33334 3.29484 1.54406 2.91977 1.91913C2.5447 2.2942 2.33398 2.80291 2.33398 3.33334V11.3333C2.33514 11.746 2.4639 12.1481 2.70261 12.4847C2.94132 12.8213 3.27828 13.0758 3.66732 13.2133V14C3.66732 14.1768 3.73756 14.3464 3.86258 14.4714C3.9876 14.5964 4.15717 14.6667 4.33398 14.6667C4.5108 14.6667 4.68036 14.5964 4.80539 14.4714C4.93041 14.3464 5.00065 14.1768 5.00065 14V13.3333H11.6673V14C11.6673 14.1768 11.7376 14.3464 11.8626 14.4714C11.9876 14.5964 12.1572 14.6667 12.334 14.6667C12.5108 14.6667 12.6804 14.5964 12.8054 14.4714C12.9304 14.3464 13.0007 14.1768 13.0007 14V13.2133C13.3897 13.0758 13.7267 12.8213 13.9654 12.4847C14.2041 12.1481 14.3328 11.746 14.334 11.3333V3.33334C14.334 2.80291 14.1233 2.2942 13.7482 1.91913C13.3731 1.54406 12.8644 1.33334 12.334 1.33334ZM13.0007 11.3333C13.0007 11.5102 12.9304 11.6797 12.8054 11.8047C12.6804 11.9298 12.5108 12 12.334 12H4.33398C4.15717 12 3.9876 11.9298 3.86258 11.8047C3.73756 11.6797 3.66732 11.5102 3.66732 11.3333V9.33334H13.0007V11.3333ZM13.0007 8.00001H3.66732V3.33334C3.66732 3.15653 3.73756 2.98696 3.86258 2.86194C3.9876 2.73691 4.15717 2.66668 4.33398 2.66668H12.334C12.5108 2.66668 12.6804 2.73691 12.8054 2.86194C12.9304 2.98696 13.0007 3.15653 13.0007 3.33334V8.00001Z" fill="#121212"/>
</svg>
